<svg width="24" height="24" viewBox="0 0 24 24" fill="none" xmlns="http://www.w3.org/2000/svg">
<path d="M11.4855 23C10.9823 23 11.4855 23 11.4855 23C11.4855 23 11.4855 18.4 11.4855 11.4941C11.4855 4.6 11.4855 0 11.4855 0C11.0111 0 11.4855 0 11.4855 0C18.0548 0 22.9711 5.60625 22.9711 11.4713C22.9711 17.5375 17.9973 23 11.4855 23Z" fill="#FF9F00"/>
<path d="M23 11.5C23 17.8512 17.8512 23 11.5 23C5.14878 23 0 17.8512 0 11.5C0 5.14878 5.14878 0 11.5 0C17.8512 0 23 5.14878 23 11.5Z" fill="url(#paint0_linear_160_18797)"/>
<path d="M20.7 11.5003C20.7 16.5813 16.581 20.7003 11.5 20.7003C6.41894 20.7003 2.29999 16.5813 2.29999 11.5003C2.29999 6.41925 6.41894 2.30029 11.5 2.30029C16.581 2.30029 20.7 6.41925 20.7 11.5003Z" fill="#FFBB00"/>
<path d="M19.8375 11.499C19.8375 16.1037 16.1048 19.8365 11.5 19.8365C6.89532 19.8365 3.16254 16.1037 3.16254 11.499C3.16254 6.89428 6.89532 3.1615 11.5 3.1615C16.1048 3.1615 19.8375 6.89428 19.8375 11.499Z" fill="url(#paint1_linear_160_18797)"/>
<path d="M12.2465 8.33599C12.2465 8.01842 11.989 7.76099 11.6715 7.76099C11.3539 7.76099 11.0965 8.01842 11.0965 8.33599L11.0965 14.4693C11.0965 14.7869 11.3539 15.0443 11.6715 15.0443C11.989 15.0443 12.2465 14.7869 12.2465 14.4693L12.2465 8.33599Z" fill="url(#paint2_linear_160_18797)"/>
<path d="M9.94646 9.10265C9.94646 8.78509 9.68902 8.52765 9.37146 8.52765C9.0539 8.52765 8.79646 8.78509 8.79646 9.10265L8.79646 13.7027C8.79646 14.0202 9.0539 14.2777 9.37146 14.2777C9.68902 14.2777 9.94646 14.0202 9.94646 13.7027V9.10265Z" fill="url(#paint3_linear_160_18797)"/>
<path d="M14.5465 9.10265C14.5465 8.78509 14.289 8.52765 13.9715 8.52765C13.6539 8.52765 13.3965 8.78509 13.3965 9.10265V13.7027C13.3965 14.0202 13.6539 14.2777 13.9715 14.2777C14.289 14.2777 14.5465 14.0202 14.5465 13.7027V9.10265Z" fill="url(#paint4_linear_160_18797)"/>
<path d="M7.64646 10.636C7.64646 10.3184 7.38902 10.061 7.07146 10.061C6.7539 10.061 6.49646 10.3184 6.49646 10.636V12.1693C6.49646 12.4869 6.7539 12.7443 7.07146 12.7443C7.38902 12.7443 7.64646 12.4869 7.64646 12.1693V10.636Z" fill="url(#paint5_linear_160_18797)"/>
<path d="M16.8465 10.636C16.8465 10.3184 16.589 10.061 16.2715 10.061C15.9539 10.061 15.6965 10.3184 15.6965 10.636V12.1693C15.6965 12.4869 15.9539 12.7443 16.2715 12.7443C16.589 12.7443 16.8465 12.4869 16.8465 12.1693V10.636Z" fill="url(#paint6_linear_160_18797)"/>
<path d="M11.6715 7.76099C11.8693 7.76099 12.0434 7.86117 12.1469 8.0133C12.055 7.95101 11.9443 7.9145 11.8249 7.91447C11.5074 7.91447 11.2499 8.17191 11.2499 8.48947V14.6228C11.25 14.7422 11.2865 14.8529 11.3488 14.9447C11.1966 14.8413 11.0965 14.6672 11.0965 14.4693V8.33599C11.0965 8.01842 11.3539 7.76099 11.6715 7.76099Z" fill="#FD7F18"/>
<path d="M9.37146 8.52765C9.5693 8.52765 9.74343 8.62783 9.84688 8.77996C9.755 8.71767 9.64431 8.68116 9.52494 8.68114C9.20738 8.68114 8.94994 8.93857 8.94994 9.25614V13.8561C8.94997 13.9755 8.98648 14.0862 9.04877 14.1781C8.89664 14.0746 8.79646 13.9005 8.79646 13.7027V9.10265C8.79646 8.78509 9.0539 8.52765 9.37146 8.52765Z" fill="#FD7F18"/>
<path d="M13.9715 8.52765C14.1693 8.52765 14.3434 8.62783 14.4469 8.77996C14.355 8.71767 14.2443 8.68116 14.1249 8.68114C13.8074 8.68114 13.5499 8.93857 13.5499 9.25614V13.8561C13.55 13.9755 13.5865 14.0862 13.6488 14.1781C13.4966 14.0746 13.3965 13.9005 13.3965 13.7027V9.10265C13.3965 8.78509 13.6539 8.52765 13.9715 8.52765Z" fill="#FD7F18"/>
<path d="M7.07146 10.061C7.2693 10.061 7.44343 10.1612 7.54688 10.3133C7.455 10.251 7.34431 10.2145 7.22494 10.2145C6.90738 10.2145 6.64994 10.4719 6.64994 10.7895V12.3228C6.64997 12.4422 6.68648 12.5529 6.74877 12.6447C6.59664 12.5413 6.49646 12.3672 6.49646 12.1693V10.636C6.49646 10.3184 6.7539 10.061 7.07146 10.061Z" fill="#FD7F18"/>
<path d="M16.2715 10.061C16.4693 10.061 16.6434 10.1612 16.7469 10.3133C16.655 10.251 16.5443 10.2145 16.4249 10.2145C16.1074 10.2145 15.8499 10.4719 15.8499 10.7895V12.3228C15.85 12.4422 15.8865 12.5529 15.9488 12.6447C15.7966 12.5413 15.6965 12.3672 15.6965 12.1693V10.636C15.6965 10.3184 15.9539 10.061 16.2715 10.061Z" fill="#FD7F18"/>
<defs>
<linearGradient id="paint0_linear_160_18797" x1="5.39695" y1="1.83551" x2="19.2144" y2="20.1023" gradientUnits="userSpaceOnUse">
<stop stop-color="#FFEA00"/>
<stop offset="0.5" stop-color="#FFC700"/>
<stop offset="1" stop-color="#FFA500"/>
</linearGradient>
<linearGradient id="paint1_linear_160_18797" x1="6.9948" y1="4.43351" x2="17.2224" y2="17.8191" gradientUnits="userSpaceOnUse">
<stop stop-color="#FFE900"/>
<stop offset="0.5" stop-color="#FFC700"/>
<stop offset="1" stop-color="#FFA600"/>
</linearGradient>
<linearGradient id="paint2_linear_160_18797" x1="11.6715" y1="7.76099" x2="11.6715" y2="15.0443" gradientUnits="userSpaceOnUse">
<stop stop-color="#FFAD00"/>
<stop offset="0.5" stop-color="#FF8F00"/>
<stop offset="1" stop-color="#FF7100"/>
</linearGradient>
<linearGradient id="paint3_linear_160_18797" x1="11.6715" y1="7.76099" x2="11.6715" y2="15.0443" gradientUnits="userSpaceOnUse">
<stop stop-color="#FFAD00"/>
<stop offset="0.5" stop-color="#FF8F00"/>
<stop offset="1" stop-color="#FF7100"/>
</linearGradient>
<linearGradient id="paint4_linear_160_18797" x1="11.6715" y1="7.76099" x2="11.6715" y2="15.0443" gradientUnits="userSpaceOnUse">
<stop stop-color="#FFAD00"/>
<stop offset="0.5" stop-color="#FF8F00"/>
<stop offset="1" stop-color="#FF7100"/>
</linearGradient>
<linearGradient id="paint5_linear_160_18797" x1="11.6715" y1="7.76099" x2="11.6715" y2="15.0443" gradientUnits="userSpaceOnUse">
<stop stop-color="#FFAD00"/>
<stop offset="0.5" stop-color="#FF8F00"/>
<stop offset="1" stop-color="#FF7100"/>
</linearGradient>
<linearGradient id="paint6_linear_160_18797" x1="11.6715" y1="7.76099" x2="11.6715" y2="15.0443" gradientUnits="userSpaceOnUse">
<stop stop-color="#FFAD00"/>
<stop offset="0.5" stop-color="#FF8F00"/>
<stop offset="1" stop-color="#FF7100"/>
</linearGradient>
</defs>
</svg>
