<svg width="24" height="24" viewBox="0 0 24 24" fill="none" xmlns="http://www.w3.org/2000/svg">
<path d="M6.22246 2C3.91114 2 2 3.82558 2 6.12307C2 7.28648 2.50289 8.39108 3.37728 9.16967L6.62987 12.0659C7.50613 12.8461 8 13.9425 8 15.086V19.2634C8 21.1245 10.1355 22.117 11.609 21.0761L13.5502 19.7047C14.4561 19.0647 15 18.0355 15 16.9317V15.2021C15 14.0022 15.5436 12.857 16.4965 12.0738L20.0168 9.18032C20.9537 8.41027 21.5 7.27281 21.5 6.068C21.5 3.80092 19.6142 2 17.3342 2H6.22246Z" fill="#1A1A1A"/>
</svg>
