<svg width="24" height="24" viewBox="0 0 24 24" fill="none" xmlns="http://www.w3.org/2000/svg">
<path d="M12.4 4.4C9.4375 4.4 6.97375 6.54875 6.48625 9.37625C6.835 9.26375 7.21 9.2 7.6 9.2H8.2C9.19375 9.2 10 10.0062 10 11V14.6C10 15.5937 9.19375 16.4 8.2 16.4H7.6C5.6125 16.4 4 14.7875 4 12.8V10.4C4 5.76125 7.76125 2 12.4 2C17.0387 2 20.8 5.76125 20.8 10.4V16.7037C20.8 19.19 18.7825 21.2037 16.2962 21.2037L13 21.2H11.8C10.8062 21.2 10 20.3937 10 19.4C10 18.4062 10.8062 17.6 11.8 17.6H13C13.9937 17.6 14.8 18.4062 14.8 19.4H16.3C17.7925 19.4 19 18.1925 19 16.7V15.9162C18.4712 16.2237 17.8562 16.3962 17.2 16.3962H16.6C15.6062 16.3962 14.8 15.59 14.8 14.5962V10.9962C14.8 10.0025 15.6062 9.19625 16.6 9.19625H17.2C17.59 9.19625 17.9612 9.25625 18.3137 9.3725C17.8263 6.54875 15.3662 4.39625 12.4 4.39625V4.4Z" fill="#1A1A1A"/>
</svg>
