<svg width="24" height="24" viewBox="0 0 24 24" fill="none" xmlns="http://www.w3.org/2000/svg">
<path d="M11.75 1C9.12665 1 7 3.12665 7 5.75V9.75C7 12.3734 9.12665 14.5 11.75 14.5C14.3734 14.5 16.5 12.3734 16.5 9.75V5.75C16.5 3.12665 14.3734 1 11.75 1Z" fill="#1A1A1A"/>
<path d="M4.5 9.75C4.5 9.33579 4.16421 9 3.75 9C3.33579 9 3 9.33579 3 9.75C3 14.3298 6.5186 18.0879 11 18.4683V20.703C10.7836 20.7315 10.5683 20.7723 10.3554 20.8256L9.5681 21.0224C9.16625 21.1229 8.92193 21.5301 9.02239 21.9319C9.12285 22.3337 9.53006 22.5781 9.9319 22.4776L10.7192 22.2808C11.0576 22.1962 11.4038 22.1539 11.75 22.1539C12.0962 22.1539 12.4424 22.1962 12.7808 22.2808L13.5681 22.4776C13.9699 22.5781 14.3771 22.3337 14.4776 21.9319C14.5781 21.5301 14.3337 21.1229 13.9319 21.0224L13.1446 20.8256C12.9317 20.7723 12.7164 20.7315 12.5 20.703V18.4683C16.9814 18.0879 20.5 14.3298 20.5 9.75C20.5 9.33579 20.1642 9 19.75 9C19.3358 9 19 9.33579 19 9.75C19 13.7541 15.7541 17 11.75 17C7.74594 17 4.5 13.7541 4.5 9.75Z" fill="#1A1A1A"/>
</svg>
