<svg width="24" height="24" viewBox="0 0 24 24" fill="none" xmlns="http://www.w3.org/2000/svg">
<path d="M8.63216 4.97996C8.92635 4.68837 8.92847 4.2135 8.63689 3.91931C8.34531 3.62511 7.87044 3.62299 7.57624 3.91457L6.1351 5.34291C5.59892 5.8743 5.15173 6.31749 4.83289 6.71451C4.49846 7.13093 4.24409 7.56858 4.17613 8.10177C4.0932 8.75238 4.63276 9.19727 5.15563 9.19727H18.9043C19.3185 9.19727 19.6543 8.86148 19.6543 8.44727C19.6543 8.03305 19.3185 7.69727 18.9043 7.69727H5.96799C5.97907 7.68305 5.99054 7.66855 6.00243 7.65375C6.26152 7.33113 6.64688 6.9476 7.22178 6.3778L8.63216 4.97996Z" fill="#1A1A1A"/>
<path d="M4.9043 15.6973C4.49008 15.6973 4.1543 16.0331 4.1543 16.4473C4.1543 16.8615 4.49008 17.1973 4.9043 17.1973H18.0409C18.0298 17.2115 18.0183 17.226 18.0064 17.2408C17.7473 17.5634 17.362 17.9469 16.7871 18.5167L15.3767 19.9146C15.0825 20.2062 15.0804 20.681 15.3719 20.9752C15.6635 21.2694 16.1384 21.2715 16.4326 20.98L17.8737 19.5516C18.4099 19.0203 18.8571 18.577 19.1759 18.18C19.5104 17.7636 19.7647 17.326 19.8327 16.7928C19.8357 16.7695 19.8383 16.7462 19.8407 16.7229C19.9018 16.1201 19.4063 15.6973 18.9043 15.6973H4.9043Z" fill="#1A1A1A"/>
<path d="M8.63216 4.97996C8.92635 4.68837 8.92847 4.2135 8.63689 3.91931C8.34531 3.62511 7.87044 3.62299 7.57624 3.91457L6.1351 5.34291C5.59892 5.8743 5.15173 6.31749 4.83289 6.71451C4.49846 7.13093 4.24409 7.56858 4.17613 8.10177C4.0932 8.75238 4.63276 9.19727 5.15563 9.19727H18.9043C19.3185 9.19727 19.6543 8.86148 19.6543 8.44727C19.6543 8.03305 19.3185 7.69727 18.9043 7.69727H5.96799C5.97907 7.68305 5.99054 7.66855 6.00243 7.65375C6.26152 7.33113 6.64688 6.9476 7.22178 6.3778L8.63216 4.97996Z" stroke="#1A1A1A" stroke-width="2" stroke-linecap="round"/>
<path d="M4.9043 15.6973C4.49008 15.6973 4.1543 16.0331 4.1543 16.4473C4.1543 16.8615 4.49008 17.1973 4.9043 17.1973H18.0409C18.0298 17.2115 18.0183 17.226 18.0064 17.2408C17.7473 17.5634 17.362 17.9469 16.7871 18.5167L15.3767 19.9146C15.0825 20.2062 15.0804 20.681 15.3719 20.9752C15.6635 21.2694 16.1384 21.2715 16.4326 20.98L17.8737 19.5516C18.4099 19.0203 18.8571 18.577 19.1759 18.18C19.5104 17.7636 19.7647 17.326 19.8327 16.7928C19.8357 16.7695 19.8383 16.7462 19.8407 16.7229C19.9018 16.1201 19.4063 15.6973 18.9043 15.6973H4.9043Z" stroke="#1A1A1A" stroke-width="2" stroke-linecap="round"/>
</svg>
