<svg width="24" height="24" viewBox="0 0 24 24" fill="none" xmlns="http://www.w3.org/2000/svg">
<path fill-rule="evenodd" clip-rule="evenodd" d="M16.4536 4.02559C15.1429 -0.00853062 9.43565 -0.00853062 8.12489 4.02559C7.73951 5.21167 6.63422 6.01471 5.3871 6.01471C1.14537 6.01471 -0.618251 11.4426 2.81338 13.9358C3.82232 14.6688 4.2445 15.9682 3.85912 17.1543C2.54835 21.1884 7.16558 24.543 10.5972 22.0498C11.6062 21.3167 12.9724 21.3167 13.9813 22.0498C17.4129 24.543 22.0302 21.1884 20.7194 17.1543C20.334 15.9682 20.7562 14.6688 21.7651 13.9358C25.1968 11.4426 23.4331 6.01471 19.1914 6.01471C17.9443 6.01471 16.839 5.21167 16.4536 4.02559ZM9.55147 4.48912C10.4132 1.83696 14.1653 1.83696 15.027 4.48912C15.6132 6.29323 17.2945 7.51471 19.1914 7.51471C21.9801 7.51471 23.1395 11.0832 20.8835 12.7223C19.3488 13.8373 18.7066 15.8137 19.2928 17.6178C20.1545 20.27 17.119 22.4754 14.863 20.8363C13.3283 19.7213 11.2502 19.7212 9.71553 20.8363C7.45947 22.4754 4.42397 20.27 5.28571 17.6178C5.8719 15.8137 5.22973 13.8373 3.69506 12.7223C1.439 11.0832 2.59846 7.51471 5.3871 7.51471C7.28406 7.51471 8.96528 6.29323 9.55147 4.48912Z" fill="#F2C94C"/>
<path d="M12.0001 21.5156C11.5048 21.5655 11.0197 21.7428 10.5972 22.0498C7.16558 24.543 2.54835 21.1884 3.85912 17.1543C4.2445 15.9682 3.82232 14.6688 2.81338 13.9358C-0.618251 11.4426 1.14537 6.01471 5.3871 6.01471C6.63422 6.01471 7.73951 5.21167 8.12489 4.02559C8.7443 2.11958 10.3453 1.11454 12.0001 1.00977V21.5156Z" fill="#F2C94C"/>
</svg>
