<svg width="24" height="24" viewBox="0 0 24 24" fill="none" xmlns="http://www.w3.org/2000/svg">
<path fill-rule="evenodd" clip-rule="evenodd" d="M11.75 2.00003C5.81294 2.00003 1 6.81297 1 12.75C1 18.6871 5.81294 23.5 11.75 23.5C17.6871 23.5 22.5 18.6871 22.5 12.75C22.5 6.81297 17.6871 2.00003 11.75 2.00003ZM12.5 8.75003C12.5 8.33581 12.1642 8.00003 11.75 8.00003C11.3358 8.00003 11 8.33581 11 8.75003V12.9559C11 13.2747 10.8782 13.5814 10.6595 13.8134L9.2043 15.3569C8.92015 15.6582 8.93412 16.1329 9.2355 16.4171C9.53689 16.7012 10.0116 16.6872 10.2957 16.3858L11.7509 14.8424C12.232 14.3321 12.5 13.6572 12.5 12.9559V8.75003Z" fill="#1A1A1A"/>
<path d="M5.71852 2.33568C6.04197 2.07692 6.09441 1.60495 5.83565 1.28151C5.57689 0.95806 5.10493 0.905619 4.78148 1.16438L2.28148 3.16438C1.95803 3.42313 1.90559 3.8951 2.16435 4.21855C2.42311 4.542 2.89507 4.59444 3.21852 4.33568L5.71852 2.33568Z" fill="#1A1A1A"/>
<path d="M18.7185 1.16438C18.3951 0.905619 17.9231 0.95806 17.6643 1.28151C17.4056 1.60495 17.458 2.07692 17.7815 2.33568L20.2815 4.33568C20.6049 4.59444 21.0769 4.542 21.3357 4.21855C21.5944 3.8951 21.542 3.42313 21.2185 3.16438L18.7185 1.16438Z" fill="#1A1A1A"/>
</svg>
